<?xml version="1.0" encoding="UTF-8" standalone="no"?>
<svg
   xmlns:dc="http://purl.org/dc/elements/1.1/"
   xmlns:cc="http://creativecommons.org/ns#"
   xmlns:rdf="http://www.w3.org/1999/02/22-rdf-syntax-ns#"
   xmlns:svg="http://www.w3.org/2000/svg"
   xmlns="http://www.w3.org/2000/svg"
   xmlns:xlink="http://www.w3.org/1999/xlink"
   xmlns:sodipodi="http://sodipodi.sourceforge.net/DTD/sodipodi-0.dtd"
   xmlns:inkscape="http://www.inkscape.org/namespaces/inkscape"
   inkscape:version="1.0.1 (c497b03c, 2020-09-10)"
   height="1000"
   width="1000"
   sodipodi:docname="gardenlinux-logo-black-text.svg"
   version="1.1"
   viewBox="0 0 999.99998 1000"
   data-name="Layer 1"
   id="Layer_1">
  <metadata
     id="metadata1159">
    <rdf:RDF>
      <cc:Work
         rdf:about="">
        <dc:format>image/svg+xml</dc:format>
        <dc:type
           rdf:resource="http://purl.org/dc/dcmitype/StillImage" />
        <dc:title>Garden Linux_logo</dc:title>
      </cc:Work>
    </rdf:RDF>
  </metadata>
  <sodipodi:namedview
     inkscape:current-layer="Layer_1"
     inkscape:window-maximized="0"
     inkscape:window-y="23"
     inkscape:window-x="0"
     inkscape:cy="895.85947"
     inkscape:cx="307.40276"
     inkscape:zoom="3.188"
     inkscape:pagecheckerboard="true"
     showgrid="false"
     id="namedview1157"
     inkscape:window-height="855"
     inkscape:window-width="1440"
     inkscape:pageshadow="2"
     inkscape:pageopacity="0"
     guidetolerance="10"
     gridtolerance="10"
     objecttolerance="10"
     borderopacity="1"
     inkscape:document-rotation="0"
     bordercolor="#666666"
     pagecolor="#ffffff" />
  <defs
     id="defs1059">
    <style
       id="style997">.cls-1,.cls-7{fill:#fff;}.cls-14,.cls-15,.cls-16,.cls-17,.cls-2{opacity:0.8;}.cls-10,.cls-14,.cls-15,.cls-16,.cls-17,.cls-2,.cls-32,.cls-7{isolation:isolate;}.cls-3{fill:#a0a0a0;}.cls-11,.cls-4{stroke:#000;}.cls-4{stroke-width:2.3px;}.cls-5{fill:url(#linear-gradient);}.cls-6{fill:url(#linear-gradient-2);}.cls-7{opacity:0.39;}.cls-8{fill:url(#radial-gradient);}.cls-9{fill:url(#radial-gradient-2);}.cls-10{opacity:0.85;}.cls-11{fill:none;stroke-width:2.36px;}.cls-12{fill:url(#radial-gradient-3);}.cls-13{fill:url(#radial-gradient-4);}.cls-14{fill:url(#linear-gradient-3);}.cls-15{fill:url(#linear-gradient-4);}.cls-16{fill:url(#radial-gradient-5);}.cls-17{fill:url(#radial-gradient-6);}.cls-18{fill:url(#radial-gradient-7);}.cls-19{fill:url(#linear-gradient-5);}.cls-20{fill:url(#linear-gradient-6);}.cls-21{fill:url(#linear-gradient-7);}.cls-22{fill:url(#linear-gradient-8);}.cls-23{fill:url(#linear-gradient-9);}.cls-24{fill:url(#linear-gradient-10);}.cls-25{fill:url(#linear-gradient-11);}.cls-26{fill:url(#linear-gradient-12);}.cls-27{fill:url(#linear-gradient-13);}.cls-28{fill:url(#linear-gradient-14);}.cls-29{fill:#027154;}.cls-30{fill:#009f76;}.cls-31{mask:url(#mask);}.cls-32{opacity:0.29;}.cls-33{fill:url(#linear-gradient-15);}.cls-34{fill:url(#linear-gradient-16);}.cls-35{fill:url(#linear-gradient-17);}.cls-36{fill:url(#linear-gradient-18);}</style>
    <linearGradient
       gradientUnits="userSpaceOnUse"
       gradientTransform="matrix(1.09,0,0,1.01,-1142.53,-29.91)"
       y2="330.17999"
       x2="1396.05"
       y1="58.799999"
       x1="1396.05"
       id="linear-gradient">
      <stop
         id="stop999"
         stop-color="#fff"
         offset="0" />
      <stop
         id="stop1001"
         stop-opacity="0"
         stop-color="#fff"
         offset="1" />
    </linearGradient>
    <linearGradient
       gradientUnits="userSpaceOnUse"
       gradientTransform="translate(0,-56.98)"
       y2="513.56"
       x2="376"
       y1="408.97"
       x1="376"
       id="linear-gradient-2">
      <stop
         id="stop1004"
         stop-color="#fff"
         offset="0" />
      <stop
         id="stop1006"
         stop-color="#bebebe"
         offset="1" />
    </linearGradient>
    <radialGradient
       gradientUnits="userSpaceOnUse"
       gradientTransform="matrix(1,0,0,0.47,0,402.02)"
       r="125.08"
       cy="554.25"
       cx="521.65002"
       id="radial-gradient">
      <stop
         id="stop1009"
         stop-color="#dfbe00"
         offset="0" />
      <stop
         id="stop1011"
         stop-color="#deaf00"
         offset="0.8" />
      <stop
         id="stop1013"
         stop-color="#dea101"
         offset="1" />
    </radialGradient>
    <radialGradient
       xlink:href="#radial-gradient"
       r="125.07"
       cy="551.23999"
       cx="231.95"
       id="radial-gradient-2" />
    <radialGradient
       gradientUnits="userSpaceOnUse"
       gradientTransform="matrix(1.22,0,0,1.55,-147.96,-193.42)"
       r="56.529999"
       cy="269.35999"
       cx="365.85001"
       id="radial-gradient-3">
      <stop
         id="stop1017"
         stop-color="#d2d2d2"
         offset="0" />
      <stop
         id="stop1019"
         stop-color="#d2d2d2"
         offset="0.88" />
      <stop
         id="stop1021"
         stop-color="gray"
         offset="1" />
    </radialGradient>
    <radialGradient
       xlink:href="#radial-gradient-3"
       gradientTransform="matrix(1.32,0,0,1.11,-251.76,-104.68)"
       r="56.549999"
       cy="303.13"
       cx="526.56"
       id="radial-gradient-4" />
    <linearGradient
       xlink:href="#linear-gradient"
       gradientTransform="translate(0,-56.98)"
       y2="277.63"
       x2="335.64001"
       y1="233.81"
       x1="308.14999"
       id="linear-gradient-3" />
    <linearGradient
       xlink:href="#linear-gradient"
       gradientTransform="translate(0,-56.98)"
       y2="273.45001"
       x2="485.98001"
       y1="235.24001"
       x1="463.01001"
       id="linear-gradient-4" />
    <radialGradient
       xlink:href="#linear-gradient"
       gradientTransform="matrix(-1,0,0,-0.36,2513.8,408.79)"
       r="65.669998"
       cy="384.12"
       cx="2066.8999"
       id="radial-gradient-5" />
    <radialGradient
       xlink:href="#linear-gradient"
       gradientTransform="matrix(-0.75,-0.93,0.36,-0.25,1723.1,2003.06)"
       r="65.690002"
       cy="-80.940002"
       cx="1890.3199"
       id="radial-gradient-6" />
    <radialGradient
       xlink:href="#radial-gradient"
       gradientTransform="matrix(1,0,0,0.8,0,25.99)"
       r="66.599998"
       cy="370.57001"
       cx="373.23999"
       id="radial-gradient-7" />
    <linearGradient
       xlink:href="#linear-gradient"
       gradientTransform="translate(0,-56.98)"
       y2="371.60999"
       x2="372.25"
       y1="333.29999"
       x1="394.88"
       id="linear-gradient-5" />
    <linearGradient
       xlink:href="#linear-gradient"
       gradientTransform="matrix(1.33,0,0,1.48,-1497.43,-454.54)"
       y2="773.91998"
       x2="1281.65"
       y1="713.25"
       x1="1281.65"
       id="linear-gradient-6" />
    <linearGradient
       xlink:href="#linear-gradient"
       gradientTransform="matrix(1.33,0,0,1.48,-1048.13,-454.54)"
       y2="773.91998"
       x2="1191.65"
       y1="713.25"
       x1="1191.65"
       id="linear-gradient-7" />
    <linearGradient
       xlink:href="#linear-gradient"
       gradientTransform="translate(0,-56.98)"
       y2="396.5"
       x2="156.64999"
       y1="570.33002"
       x1="-66.120003"
       id="linear-gradient-8" />
    <linearGradient
       xlink:href="#linear-gradient"
       gradientTransform="matrix(-1,0,0,1,2329,-14.55)"
       y2="352.59"
       x2="1738.03"
       y1="526.41998"
       x1="1515.27"
       id="linear-gradient-9" />
    <linearGradient
       gradientUnits="userSpaceOnUse"
       gradientTransform="translate(0,-56.98)"
       y2="763.52002"
       x2="376.92999"
       y1="746.10999"
       x1="376.75"
       id="linear-gradient-10">
      <stop
         id="stop1035"
         stop-color="#3c3c3c"
         offset="0" />
      <stop
         id="stop1037"
         stop-opacity="0"
         stop-color="#a0a0a0"
         offset="1" />
    </linearGradient>
    <linearGradient
       xlink:href="#linear-gradient"
       gradientTransform="translate(0,-56.98)"
       y2="285.91"
       x2="357.42999"
       y1="265.29001"
       x1="351.73999"
       id="linear-gradient-11" />
    <linearGradient
       gradientUnits="userSpaceOnUse"
       gradientTransform="translate(0,-56.98)"
       y2="311.29999"
       x2="346.17001"
       y1="286.87"
       x1="333.14001"
       id="linear-gradient-12">
      <stop
         id="stop1041"
         stop-color="#3c3c3c"
         offset="0" />
      <stop
         id="stop1043"
         stop-opacity="0"
         stop-color="#3c3c3c"
         offset="1" />
    </linearGradient>
    <linearGradient
       xlink:href="#linear-gradient"
       gradientTransform="translate(0,-56.98)"
       y2="287.17001"
       x2="399.73001"
       y1="264.70999"
       x1="392.20999"
       id="linear-gradient-13" />
    <linearGradient
       xlink:href="#linear-gradient-12"
       y2="312.87"
       x2="389.54999"
       y1="288.42999"
       x1="376.51999"
       id="linear-gradient-14" />
    <mask
       maskUnits="userSpaceOnUse"
       height="174.67"
       width="198.38"
       y="411.63"
       x="261.81"
       id="mask">
      <g
         id="mask-2">
        <path
           inkscape:connector-curvature="0"
           d="m 374.8,412.31 a 9,9 0 0 1 6.85,0 l 59.44,28.63 a 8.94,8.94 0 0 1 4.27,5.35 L 460,510.62 a 8.93,8.93 0 0 1 -1.52,6.67 l -41.14,51.59 a 8.93,8.93 0 0 1 -6.17,3 h -66 a 9,9 0 0 1 -6.17,-3 l -41.14,-51.59 a 8.9,8.9 0 0 1 -1.52,-6.67 l 14.68,-64.33 a 8.91,8.91 0 0 1 4.27,-5.35 z"
           class="cls-1"
           id="path-1" />
      </g>
    </mask>
    <linearGradient
       gradientUnits="userSpaceOnUse"
       gradientTransform="matrix(-25.85,0,0,-24.03,1909.56,18429.81)"
       y2="746.16998"
       x2="59.740002"
       y1="748.13"
       x1="58.310001"
       id="linear-gradient-15">
      <stop
         id="stop1051"
         stop-color="#fff"
         offset="0" />
      <stop
         id="stop1053"
         stop-color="#439246"
         offset="1" />
    </linearGradient>
    <linearGradient
       xlink:href="#linear-gradient-15"
       gradientTransform="matrix(-25.42,0,0,-24.02,1879.16,18421.67)"
       y2="744.45001"
       x2="60.75"
       y1="747.69"
       x1="58.880001"
       id="linear-gradient-16" />
    <linearGradient
       xlink:href="#linear-gradient-15"
       gradientTransform="matrix(41.07,0,0,-34.51,-2740.84,26476.47)"
       y2="751.78998"
       x2="76.269997"
       y1="753.44"
       x1="75.07"
       id="linear-gradient-17" />
    <linearGradient
       xlink:href="#linear-gradient-15"
       gradientTransform="matrix(40.71,0,0,-34.29,-2715.3,26312.18)"
       y2="750.28003"
       x2="77.510002"
       y1="752.78003"
       x1="75.980003"
       id="linear-gradient-18" />
    <linearGradient
       y2="330.17999"
       x2="1396.05"
       y1="58.799999"
       x1="1396.05"
       gradientTransform="matrix(1.09,0,0,1.01,-1142.53,-29.91)"
       gradientUnits="userSpaceOnUse"
       id="linearGradient1722"
       xlink:href="#linear-gradient"
       inkscape:collect="always" />
    <radialGradient
       r="125.08"
       cy="554.25"
       cx="521.65002"
       gradientTransform="matrix(1,0,0,0.47,0,402.02)"
       gradientUnits="userSpaceOnUse"
       id="radialGradient1724"
       xlink:href="#radial-gradient"
       inkscape:collect="always" />
    <radialGradient
       r="56.529999"
       cy="269.35999"
       cx="365.85001"
       gradientTransform="matrix(1.22,0,0,1.55,-147.96,-193.42)"
       gradientUnits="userSpaceOnUse"
       id="radialGradient1726"
       xlink:href="#radial-gradient-3"
       inkscape:collect="always" />
    <linearGradient
       y2="311.29999"
       x2="346.17001"
       y1="286.87"
       x1="333.14001"
       gradientTransform="translate(0,-56.98)"
       gradientUnits="userSpaceOnUse"
       id="linearGradient1728"
       xlink:href="#linear-gradient-12"
       inkscape:collect="always" />
    <linearGradient
       y2="746.16998"
       x2="59.740002"
       y1="748.13"
       x1="58.310001"
       gradientTransform="matrix(-25.85,0,0,-24.03,1909.56,18429.81)"
       gradientUnits="userSpaceOnUse"
       id="linearGradient1730"
       xlink:href="#linear-gradient-15"
       inkscape:collect="always" />
  </defs>
  <title
     id="title1061">Garden Linux_logo</title>
  <g
     transform="translate(134.61875,37.691912)"
     data-name="Layer 2"
     id="Layer_2">
    <g
       id="g1065"
       class="cls-2">
      <path
         inkscape:connector-curvature="0"
         id="path1063"
         d="m 669.3,706.5 c 0,14.8 -132.2,26.9 -295.4,26.9 -163.2,0 -295.4,-12 -295.4,-26.9 0,-14.9 132.2,-26.9 295.4,-26.9 163.2,0 295.4,12.1 295.4,26.9"
         class="cls-3" />
    </g>
    <path
       inkscape:connector-curvature="0"
       id="path1067"
       d="m 129.2,432.3 a 122.92,122.92 0 0 0 -2.1,25.1 c 3.9,128.3 111.2,232.4 248.1,232.4 136.9,0 246.9,-103.5 248.1,-232.4 a 71.44,71.44 0 0 0 -5.1,-27.2 c 0,0 29.3,6.3 81.7,44 46.1,8.4 29.3,-29.3 29.3,-29.3 0,0 -10.5,-29.3 -77.5,-81.7 -67,-52.4 -65.2,-70 -72.5,-102.4 -7.4,-32.6 -17.5,-75.6 -17.5,-75.6 0,0 -15.5,-67.6 -50.7,-102.6 a 193.62,193.62 0 0 0 -274.4,0.8 c -35.2,35.4 -55,89.2 -55,89.2 0,0 -11.3,42.7 -11,76.9 0.3,33.6 -7.9,63.3 -74.9,115.7 -67,52.4 -77.5,81.7 -77.5,81.7 0,0 -16,35.3 30.1,27 52.4,-34.6 81,-41.6 80.9,-41.6 z"
       class="cls-4" />
    <path
       style="fill:url(#linearGradient1722)"
       inkscape:connector-curvature="0"
       id="path1069"
       d="m 525.2,166.6 c 0,75.7 -67.7,137.1 -151.2,137.1 -83.5,0 -151.2,-61.4 -151.2,-137.1 0,-75.7 67.7,-137.1 151.2,-137.1 83.5,0 151.2,61.4 151.2,137.1"
       class="cls-5" />
    <path
       style="fill:url(#linear-gradient-2)"
       inkscape:connector-curvature="0"
       id="path1071"
       d="m 576,500.2 c 0,63.6 -22.4,122.5 -58.6,164.2 -36.2,41.7 -246.6,41.7 -282.8,0 C 198.4,622.7 176,565.1 176,501.5 176,374.3 265.6,271.1 376,271.1 485.6,271.2 574.7,374 576,500.2 Z"
       class="cls-6" />
    <path
       inkscape:connector-curvature="0"
       id="path1073"
       d="m 191.7,418 c 0,0 -6.8,63.5 1.4,100.1 8.2,36.6 17.6,73 17.6,73 l -19.6,6.1 a 248.41,248.41 0 0 1 -20.3,-27 c -9.5,-14.9 -21,-45.3 -21,-45.3 l 30.4,23.7 c 0,0 -6.1,-25.7 -3.4,-54.1 2.7,-28.4 5.5,-58.2 14.9,-76.5 z"
       class="cls-7" />
    <path
       inkscape:connector-curvature="0"
       id="path1075"
       d="m 269.6,313.8 c 0,0 8.8,13.5 14.9,13.7 10,1.1 12.8,11.6 22.7,10.9 21.2,25.4 39.8,49 59.6,58.9 7.1,4.6 14.7,5.7 21.2,-5.5 11.3,-9.9 37.3,-37.8 42.9,-48.5 8.2,-9.5 6.3,-23.3 6.3,-23.3 0,0 14,-5.6 21,-6.1 7.8,-0.6 1.2,-14.2 8.1,-15.5 -1.7,-11.2 9.1,-11 -3.6,-12.4 -12.7,-1.4 -173.8,-9.9 -186.6,-1.4 -12.8,8.5 -15,13.7 -6.5,29.2 z"
       class="cls-3" />
    <path
       inkscape:connector-curvature="0"
       id="path1077"
       d="m 559.6,421.4 c 0,0 6.8,63.5 -1.4,100.1 -8.2,36.6 -17.6,73 -17.6,73 l 19.6,6.1 a 248.41,248.41 0 0 0 20.3,-27 c 9.5,-14.8 21,-45.3 21,-45.3 L 571.1,552 c 0,0 6.1,-25.7 3.4,-54.1 -2.7,-28.4 -5.5,-58.3 -14.9,-76.5 z"
       class="cls-7" />
    <path
       inkscape:connector-curvature="0"
       id="path1079"
       d="m 631.3,674.8 c 0,12.4 -3.5,16.9 -9.8,27.6 H 390.9 c -6.3,-10.7 -9.8,-15.2 -9.8,-27.6 0,-49.5 56,-89.8 125.1,-89.8 69.1,0 125.1,40.2 125.1,89.8"
       class="cls-3" />
    <path
       style="fill:url(#radialGradient1724)"
       inkscape:connector-curvature="0"
       id="path1081"
       d="m 646.7,679 c 0,12.4 -3.5,16.9 -9.8,27.6 H 406.4 c -6.3,-10.7 -9.8,-15.2 -9.8,-27.6 0,-49.5 56,-89.8 125.1,-89.8 69.1,0 125,40.2 125,89.8"
       class="cls-8" />
    <path
       inkscape:connector-curvature="0"
       id="path1083"
       d="m 372.5,676.1 c 0,12.4 -3.5,16.9 -9.8,27.6 H 132.2 c -6.3,-10.7 -9.8,-15.2 -9.8,-27.6 0,-49.5 56,-89.8 125.1,-89.8 69.1,0 125,40.3 125,89.8"
       class="cls-3" />
    <path
       style="fill:url(#radial-gradient-2)"
       inkscape:connector-curvature="0"
       id="path1085"
       d="m 357,679 c 0,12.4 -3.5,16.9 -9.8,27.6 H 116.7 c -6.3,-10.7 -9.8,-15.2 -9.8,-27.6 0,-49.5 56,-89.8 125.1,-89.8 69.1,0 125,40.2 125,89.8"
       class="cls-9" />
    <g
       id="g1089"
       class="cls-10">
      <path
         inkscape:connector-curvature="0"
         id="path1087"
         d="m 531.8,225.9 c 0,37.4 -38.2,67.7 -85.4,67.7 -47.2,0 -85.4,-30.3 -85.4,-67.7 0,-37.4 38.2,-67.7 85.4,-67.7 47.2,0 85.4,30.3 85.4,67.7" />
    </g>
    <g
       id="g1095"
       class="cls-10">
      <path
         inkscape:connector-curvature="0"
         id="path1091"
         d="m 372.3,221 c 0,49.4 -32.5,89.5 -72.6,89.5 -40.1,0 -72.6,-40.1 -72.6,-89.5 0,-49.4 32.5,-89.5 72.6,-89.5 40.1,0 72.6,40.1 72.6,89.5" />
      <path
         inkscape:connector-curvature="0"
         id="path1093"
         d="m 372.3,221 c 0,49.4 -32.5,89.5 -72.6,89.5 -40.1,0 -72.6,-40.1 -72.6,-89.5 0,-49.4 32.5,-89.5 72.6,-89.5 40.1,0 72.6,40.1 72.6,89.5"
         class="cls-11" />
    </g>
    <path
       style="fill:url(#radialGradient1726)"
       inkscape:connector-curvature="0"
       id="path1097"
       d="m 368.1,223.2 c 0,48.3 -30.9,87.4 -69.1,87.4 -38.2,0 -69.1,-39.1 -69.1,-87.4 0,-48.3 30.9,-87.4 69.1,-87.4 38.2,0 69.1,39.1 69.1,87.4"
       class="cls-12" />
    <path
       style="fill:url(#radial-gradient-4)"
       inkscape:connector-curvature="0"
       id="path1099"
       d="m 519,230.8 c 0,35.4 -33.5,64.1 -74.7,64.1 -41.2,0 -74.7,-28.7 -74.7,-64.1 0,-35.4 33.5,-64.1 74.7,-64.1 41.2,0 74.7,28.7 74.7,64.1"
       class="cls-13" />
    <path
       inkscape:connector-curvature="0"
       id="path1101"
       d="m 409.4,231.6 c 0,16 -8.9,29 -19.8,29 -10.9,0 -19.8,-13 -19.8,-29 0,-16 8.9,-29 19.8,-29 10.9,0 19.8,13 19.8,29" />
    <path
       style="fill:url(#linear-gradient-3)"
       inkscape:connector-curvature="0"
       id="path1103"
       d="m 255.2,165.2 c 0,0 19.8,-36.7 57.9,-24 38.1,12.7 40.7,34.8 50.6,85.7 9.9,50.9 -35.1,4.8 -35.1,4.8 0,0 -5.7,-43.8 -31.1,-56.5 -25.4,-12.7 -42.3,-8.5 -42.3,-10 z"
       class="cls-14" />
    <path
       inkscape:connector-curvature="0"
       id="path1105"
       d="m 366.8,231 c 0,16 -8.9,29 -19.8,29 -10.9,0 -19.8,-13 -19.8,-29 0,-16 8.9,-29 19.8,-29 10.9,0 19.8,13 19.8,29"
       class="cls-4" />
    <path
       style="fill:url(#linear-gradient-4)"
       inkscape:connector-curvature="0"
       id="path1107"
       d="m 433.3,172.3 c 0,0 41,-7.1 63.6,21.2 22.6,28.3 15.5,38.2 15.5,38.2 l -31.1,1.4 c 0.1,0 -19.7,-45.3 -48,-60.8 z"
       class="cls-15" />
    <path
       style="fill:url(#radial-gradient-5)"
       inkscape:connector-curvature="0"
       id="path1109"
       d="m 381.6,261 c 0,0 37.2,22 69.7,17.7 32.5,-4.3 47.8,-16.3 60.9,-29.2 -3.3,15.4 -33.9,39.8 -60.7,41.2 -26.8,1.4 -69.9,-28.3 -69.9,-29.7 z"
       class="cls-16" />
    <path
       style="fill:url(#radial-gradient-6)"
       inkscape:connector-curvature="0"
       id="path1111"
       d="m 239.2,198.4 c 0,0 -0.2,47.9 28.5,75.3 28.7,27.4 45.9,21.6 68.5,25 -17.9,7.5 -58.8,7.5 -80.4,-16.5 -21.6,-24 -18,-82.8 -16.6,-83.8 z"
       class="cls-17" />
    <path
       style="fill:url(#radial-gradient-7)"
       inkscape:connector-curvature="0"
       id="path1113"
       d="m 375.5,377.2 7,-0.1 c 0,0 7.6,-8.4 33.9,-35.9 17.6,-20 23.2,-33.1 23.2,-33.1 0,0 3.6,-13.2 -13.6,-26.7 -22.5,-11.2 -33.9,-11.2 -50.6,-11.1 -16.7,0.1 -29,2.1 -50.6,11.2 -21.6,9.1 -18,27.5 -18,27.5 0,0 1.6,8.8 27.9,36.3 26.3,27.5 40.8,31.9 40.8,31.9 z"
       class="cls-18" />
    <path
       style="fill:url(#linear-gradient-5)"
       inkscape:connector-curvature="0"
       id="path1115"
       d="m 331.1,283.3 c 0,0 34.1,2.3 56.5,15.9 22.4,13.6 30.5,32.5 30.5,32.5 0,0 14,-15.3 15.9,-21.1 1.9,-5.8 5.8,-17.5 -14.6,-29.2 -20.4,-11.7 -32.1,-8.4 -52,-8.1 -19.7,0.2 -36.3,10.3 -36.3,10 z"
       class="cls-19" />
    <g
       id="g1119"
       class="cls-2">
      <path
         style="fill:url(#linear-gradient-6)"
         inkscape:connector-curvature="0"
         id="path1117"
         d="m 287.7,650.7 c 0,27.7 -34.2,50.2 -76.3,50.2 -42.1,0 -76.3,-22.5 -76.3,-50.2 0,-27.7 34.2,-50.2 76.3,-50.2 42.1,0 76.3,22.5 76.3,50.2"
         class="cls-20" />
    </g>
    <g
       id="g1123"
       class="cls-2">
      <path
         style="fill:url(#linear-gradient-7)"
         inkscape:connector-curvature="0"
         id="path1121"
         d="m 617,650.7 c 0,27.7 -34.2,50.2 -76.3,50.2 -42.1,0 -76.3,-22.5 -76.3,-50.2 0,-27.7 34.2,-50.2 76.3,-50.2 42.1,0 76.3,22.5 76.3,50.2"
         class="cls-21" />
    </g>
    <path
       style="fill:url(#linear-gradient-8)"
       inkscape:connector-curvature="0"
       id="path1125"
       d="m 24.9,455 c 0,0 118.7,-76.3 137.1,-90.5 18.4,-14.2 1.4,-59.4 1.4,-59.4 a 424.8,424.8 0 0 1 -41,48.1 c -21.2,17 -38.2,31.1 -70.7,57.9 -32.5,32.6 -26.8,45.3 -26.8,43.9 z"
       class="cls-22" />
    <path
       style="fill:url(#linear-gradient-9)"
       inkscape:connector-curvature="0"
       id="path1127"
       d="m 722.7,453.5 c 0,0 -118.7,-76.3 -137.1,-90.5 -18.4,-14.2 -1.4,-59.4 -1.4,-59.4 a 424.8,424.8 0 0 0 41,48.1 c 21.2,17 38.2,31.1 70.7,57.9 32.5,32.6 26.8,45.4 26.8,43.9 z"
       class="cls-23" />
    <path
       style="fill:url(#linear-gradient-10)"
       inkscape:connector-curvature="0"
       id="path1129"
       d="m 355.7,689.3 c 0,0 15.2,1.3 21.5,1.2 7,-0.1 16.3,-0.8 21.2,-1.3 1.5,7.6 6.4,14.4 8,16.5 2,1.9 -59,0.3 -59,0.3 0,0 7.6,-10.7 8.3,-16.7 z"
       class="cls-24" />
    <path
       style="fill:url(#linear-gradient-11)"
       inkscape:connector-curvature="0"
       id="path1131"
       d="m 343.1,203.1 c 0,0 4.9,14.1 5.2,26.1 10.7,-3.6 16.3,-7.2 16.3,-7.2 0,0 -2.7,-18.9 -21.5,-18.9 z"
       class="cls-25" />
    <path
       style="fill:url(#linearGradient1728)"
       inkscape:connector-curvature="0"
       id="path1133"
       d="m 332,213.1 c 0,0 -1.8,15.7 4.9,26.4 6.7,10.7 14.3,14.1 20.1,15.4 -1.8,1.6 -10,6 -17.6,-0.2 -7.6,-6.2 -11.4,-12.1 -11.4,-20.3 0,-8.2 1.4,-18.2 4,-21.3 z"
       class="cls-26" />
    <path
       style="fill:url(#linear-gradient-13)"
       inkscape:connector-curvature="0"
       id="path1135"
       d="m 385,204 c 0,0 4.9,14.1 5.2,26.1 10.7,-3.6 16.3,-7.2 16.3,-7.2 0,0 -2.7,-18.9 -21.5,-18.9 z"
       class="cls-27" />
    <path
       style="fill:url(#linear-gradient-14)"
       inkscape:connector-curvature="0"
       id="path1137"
       d="m 375.4,214.7 c 0,0 -1.8,15.7 4.9,26.4 6.7,10.7 14.3,14.1 20.1,15.4 -1.8,1.6 -10,6 -17.6,-0.2 -7.6,-6.2 -11.4,-12.1 -11.4,-20.3 0,-8.2 1.5,-18.3 4,-21.3 z"
       class="cls-28" />
  </g>
  <g
     transform="translate(134.61875,37.691912)"
     data-name="Layer 1"
     id="Layer_1-2">
    <path
       inkscape:connector-curvature="0"
       id="path1140"
       d="m 163.6,323.3 c 0,0 79.6,82.5 209.8,80.4 63.4,-1 146.2,1.1 230.2,-86.7 l 5.7,6.7 41.7,36.4 c 0,0 -37.8,44 -27.4,70.4 0,0 4.3,26.6 0.8,50.2 -5.4,36.9 -26.2,90.4 -41.6,104.2 0,0 -365.9,-9.1 -413.3,0 0,0 -48.1,-35.2 -53.2,-148.3 0,0 -6.6,-35.1 -37.1,-59.2 l 72.5,-67 z"
       class="cls-29" />
  </g>
  <g
     transform="translate(134.61875,37.691912)"
     id="Page-1">
    <g
       id="logo">
      <g
         id="Rectangle-2">
        <g
           data-name="Mask"
           id="Mask-2-2">
          <path
             inkscape:connector-curvature="0"
             d="m 374.8,412.31 a 9,9 0 0 1 6.85,0 l 59.44,28.63 a 8.94,8.94 0 0 1 4.27,5.35 L 460,510.62 a 8.93,8.93 0 0 1 -1.52,6.67 l -41.14,51.59 a 8.93,8.93 0 0 1 -6.17,3 h -66 a 9,9 0 0 1 -6.17,-3 l -41.14,-51.59 a 8.9,8.9 0 0 1 -1.52,-6.67 l 14.68,-64.33 a 8.91,8.91 0 0 1 4.27,-5.35 z"
             class="cls-30"
             data-name="path-1"
             id="path-1-2" />
        </g>
        <g
           id="g1147"
           mask="url(#mask)"
           class="cls-31">
          <polygon
             id="polygon1145"
             points="261.81,513.9 353.81,458.02 415.77,521.45 342.24,586.3 "
             class="cls-32" />
        </g>
      </g>
      <path
         style="fill:url(#linearGradient1730)"
         inkscape:connector-curvature="0"
         d="m 352.24,484.94 a 11.62,11.62 0 0 0 4.13,5.56 l 15.33,10 a 9.4,9.4 0 0 0 9.52,0 l 15.32,-10 a 11.75,11.75 0 0 0 4.76,-8.82 v -21.12 a 10.32,10.32 0 0 0 -1.08,-4.33 z"
         class="cls-33"
         id="Combined-Shape" />
      <path
         style="fill:url(#linear-gradient-16)"
         inkscape:connector-curvature="0"
         d="m 353.31,458.14 a 10.41,10.41 0 0 0 -1.07,4.31 v 21.12 a 11.75,11.75 0 0 0 4.76,8.83 l 15.33,10 a 9.4,9.4 0 0 0 9.52,0 l 15.32,-10 a 10.82,10.82 0 0 0 3.31,-3.77 z"
         class="cls-34"
         data-name="Combined-Shape"
         id="Combined-Shape-2" />
      <path
         style="fill:url(#linear-gradient-17)"
         inkscape:connector-curvature="0"
         d="m 416.9,519 a 10.47,10.47 0 0 1 -4,4.62 l -29.61,17.1 a 10.85,10.85 0 0 1 -9.83,0 l -29.62,-17.1 a 10.86,10.86 0 0 1 -4.91,-8.51 v -34.2 a 9.8,9.8 0 0 1 1.25,-4.5 z"
         class="cls-35"
         data-name="Combined-Shape"
         id="Combined-Shape-3" />
      <path
         style="fill:url(#linear-gradient-18)"
         inkscape:connector-curvature="0"
         d="m 416.81,476.76 a 9.72,9.72 0 0 1 1,4.1 v 34.2 a 10.87,10.87 0 0 1 -4.92,8.51 l -29.61,17.1 a 10.85,10.85 0 0 1 -9.83,0 l -29.62,-17.1 a 9.87,9.87 0 0 1 -3.29,-3.35 z"
         class="cls-36"
         data-name="Combined-Shape"
         id="Combined-Shape-4" />
    </g>
  </g>
  <g
     aria-label="Garden Linux"
     id="text1734"
     style="font-size:146.667px;line-height:1.25;font-family:'72';-inkscape-font-specification:'72 Normal'">
    <path
       d="m 168.77103,898.81842 v 53.71106 H 156.73975 V 938.0633 q -5.22788,7.30471 -13.32035,11.60159 -8.09246,4.29688 -18.69144,4.29688 -14.17973,0 -24.70709,-6.66017 -10.455757,-6.73178 -16.041707,-18.61983 -5.585951,-11.88805 -5.585951,-27.07038 0,-15.61201 5.800795,-27.2136 5.800795,-11.67321 16.543003,-17.9753 10.74222,-6.3021 25.2084,-6.3021 12.81904,0 22.12895,4.58334 9.30992,4.51173 16.75786,13.46357 L 154.09,876.68946 q -5.3711,-6.87502 -12.24612,-10.38414 -6.8034,-3.50912 -16.32816,-3.50912 -10.09768,0 -17.61723,4.79819 -7.44794,4.79819 -11.529976,13.6068 -4.010426,8.737 -4.010426,20.4102 0,11.60159 4.010426,20.62505 4.082036,9.02346 11.458356,14.10811 7.37632,5.01303 17.04431,5.01303 9.81123,0 16.4714,-3.93881 6.66017,-4.01043 9.95445,-10.6706 3.29428,-6.66017 3.36589,-14.82425 v -0.42969 h -26.06777 v -12.67581 z"
       style="fill:#000000"
       id="path111" />
    <path
       d="m 208.73206,953.96177 q -11.81644,0 -18.04692,-6.08725 -6.15887,-6.15887 -6.15887,-16.90108 0,-12.96227 9.66799,-18.54822 9.66799,-5.65757 24.06256,-5.94402 l 15.39717,-0.28646 v -4.58335 q 0,-8.02085 -4.15366,-12.53258 -4.08204,-4.58334 -11.6732,-4.58334 -6.15887,0 -11.1719,2.57813 -5.01304,2.57813 -10.95706,9.02346 l -8.09247,-8.37893 q 5.01304,-6.15887 12.67581,-10.09768 7.7344,-4.01042 17.83208,-4.01042 8.95184,0 15.32555,3.4375 6.37372,3.43751 9.66799,9.45315 3.29428,6.01564 3.29428,13.82165 v 35.80737 q 0,9.16669 0.57292,16.39978 h -12.46097 q -0.57291,-5.22788 -0.57291,-11.45836 h -0.28646 q -4.3685,6.37371 -10.09768,9.66799 -5.65757,3.22266 -14.82425,3.22266 z m 2.9362,-10.81382 q 6.87502,0 11.81643,-2.72136 5.01304,-2.79298 7.59117,-7.23309 2.57813,-4.51173 2.57813,-9.52476 v -7.37632 l -12.17451,0.28646 q -10.6706,0.28645 -17.18754,3.50912 -6.44533,3.15105 -6.44533,11.02867 0,5.51434 3.65236,8.80861 3.72396,3.22267 10.16929,3.22267 z"
       style="fill:#000000"
       id="path113" />
    <path
       d="m 266.95485,893.16085 q 0,-11.74482 -0.42969,-18.04691 h 12.17451 q 0.21484,3.07943 0.35807,6.87501 0.21485,3.72397 0.21485,6.01564 h 0.28646 q 2.86459,-7.23309 7.37631,-10.81383 4.51173,-3.58073 10.24091,-3.58073 3.93882,0 6.44533,0.71614 l -1.0026,12.67581 q -2.57814,-0.78776 -6.15887,-0.78776 -8.52216,0 -12.53258,7.01825 -4.01043,6.94663 -4.01043,18.97791 v 40.3191 h -12.96227 z"
       style="fill:#000000"
       id="path115" />
    <path
       d="m 341.79227,953.96177 q -15.5404,0 -23.41802,-10.67059 -7.80601,-10.6706 -7.80601,-29.21882 0,-12.24612 3.65235,-21.3412 3.65235,-9.09507 10.95706,-14.1081 7.37632,-5.01303 17.9753,-5.01303 7.44793,0 13.32034,3.00782 5.87241,2.9362 8.95185,9.02345 h 0.14323 q -0.14323,-1.57552 -0.14323,-9.38153 v -30.07819 h 12.89065 v 90.37781 q 0,5.01303 0.14323,9.38153 0.14323,4.3685 0.28646,6.58856 h -12.31774 q -0.28646,-1.21745 -0.5013,-4.65496 -0.21484,-3.43751 -0.21484,-6.94663 h -0.28646 q -3.43751,6.51694 -9.59638,9.81122 -6.15887,3.22266 -14.03649,3.22266 z m 1.9336,-11.38674 q 10.02606,0 15.82686,-7.08986 5.87241,-7.08986 5.87241,-22.70188 0,-14.82425 -5.65757,-21.48442 -5.65756,-6.66017 -15.0391,-6.66017 -20.69666,0 -20.69666,29.00397 0,13.75003 4.72658,21.3412 4.79818,7.59116 14.96748,7.59116 z"
       style="fill:#000000"
       id="path117" />
    <path
       d="m 429.73518,953.96177 q -11.31513,0 -19.33598,-5.01303 -7.94924,-5.08464 -12.10289,-14.17972 -4.08204,-9.16669 -4.08204,-21.26958 0,-12.67581 4.3685,-21.62765 4.44011,-9.02346 12.10289,-13.60681 7.66278,-4.65495 17.25915,-4.65495 11.67321,0 18.97791,5.51433 7.30471,5.44272 10.52737,13.89326 3.22266,8.45054 3.22266,17.97531 0,2.4349 -0.28646,6.15886 h -52.56522 q 0,6.23049 2.36328,12.17451 2.43491,5.87241 7.37632,9.73961 4.94142,3.79558 12.17451,3.79558 4.51173,0 8.16408,-1.21745 3.72397,-1.28907 6.66017,-3.29428 3.00782,-2.00521 6.58856,-5.15626 l 7.01825,9.2383 q -3.65236,3.07943 -7.23309,5.44272 -3.58074,2.36329 -9.09508,4.22527 -5.44272,1.86198 -12.10289,1.86198 z m 17.68884,-47.6238 q -0.93099,-11.02868 -5.80079,-16.32817 -4.8698,-5.3711 -13.67842,-5.3711 -4.79819,0 -9.2383,2.29167 -4.3685,2.22006 -7.37632,7.08986 -2.9362,4.8698 -3.29428,12.31774 z"
       style="fill:#000000"
       id="path119" />
    <path
       d="m 477.50223,891.51371 q 0,-4.44011 -0.14323,-9.95445 -0.14323,-5.51433 -0.28646,-6.44532 h 12.17451 q 0.21484,1.93359 0.35807,6.23048 0.21485,4.29688 0.21485,6.94663 h 0.28645 q 3.93882,-7.3047 9.59638,-10.95706 5.72918,-3.72396 15.25394,-3.72396 12.38935,0 18.40499,7.3047 6.08726,7.23309 6.08726,19.98052 v 51.63423 h -12.96227 v -49.12772 q 0,-8.95184 -3.72397,-13.6068 -3.72397,-4.72657 -12.24612,-4.72657 -6.08726,0 -10.59898,2.64974 -4.51173,2.64975 -7.01825,7.73439 -2.4349,5.01304 -2.4349,12.17451 v 44.90245 h -12.96227 z"
       style="fill:#000000"
       id="path121" />
    <path
       d="m 601.75382,851.6243 h 13.6068 v 88.30098 h 46.69282 v 12.6042 h -60.29962 z"
       style="fill:#000000"
       id="path123" />
    <path
       d="m 683.03652,860.71937 q -3.72396,0 -6.23048,-2.4349 -2.4349,-2.50652 -2.4349,-6.23048 0,-3.72397 2.4349,-6.15887 2.50652,-2.50652 6.23048,-2.50652 3.65236,0 6.08726,2.50652 2.4349,2.4349 2.4349,6.15887 0,3.65235 -2.4349,6.15886 -2.4349,2.50652 -6.08726,2.50652 z m -6.44532,14.39457 h 12.89065 v 77.41554 H 676.5912 Z"
       style="fill:#000000"
       id="path125" />
    <path
       d="m 709.53403,891.51371 q 0,-4.44011 -0.14323,-9.95445 -0.14323,-5.51433 -0.28646,-6.44532 h 12.17451 q 0.21484,1.93359 0.35807,6.23048 0.21484,4.29688 0.21484,6.94663 h 0.28646 q 3.93881,-7.3047 9.59638,-10.95706 5.72918,-3.72396 15.25394,-3.72396 12.38935,0 18.40499,7.3047 6.08726,7.23309 6.08726,19.98052 v 51.63423 h -12.96227 v -49.12772 q 0,-8.95184 -3.72397,-13.6068 -3.72397,-4.72657 -12.24612,-4.72657 -6.08726,0 -10.59899,2.64974 -4.51172,2.64975 -7.01824,7.73439 -2.4349,5.01304 -2.4349,12.17451 v 44.90245 h -12.96227 z"
       style="fill:#000000"
       id="path127" />
    <path
       d="m 815.09416,953.96177 q -12.17451,0 -18.33337,-7.3047 -6.15887,-7.3047 -6.15887,-21.41281 v -50.13032 h 12.89065 v 47.6238 q 0,10.59899 3.79558,15.25395 3.8672,4.58334 12.24613,4.58334 5.58595,0 10.16929,-2.9362 4.58335,-3.00782 7.23309,-8.37893 2.64975,-5.44272 2.64975,-12.31774 v -43.82822 h 12.89065 v 60.87253 q 0,4.72658 0.14323,10.1693 0.21485,5.3711 0.35807,6.37371 h -12.1745 q -0.14323,-0.78776 -0.42969,-5.51434 -0.21485,-4.72657 -0.21485,-7.23309 h -0.28645 q -3.79559,6.80341 -9.81123,10.52737 -6.01563,3.65235 -14.96748,3.65235 z"
       style="fill:#000000"
       id="path129" />
    <path
       d="m 891.79355,912.78329 -26.13938,-37.66935 h 14.53779 l 19.04953,29.72012 18.90629,-29.72012 h 14.68102 l -26.13938,37.52612 27.71491,39.88942 h -14.60941 l -20.55343,-31.51049 -20.55344,31.51049 H 864.3651 Z"
       style="fill:#000000"
       id="path131" />
  </g>
</svg>
