<?xml version="1.0" encoding="UTF-8" standalone="no"?>
<svg
   xmlns:dc="http://purl.org/dc/elements/1.1/"
   xmlns:cc="http://creativecommons.org/ns#"
   xmlns:rdf="http://www.w3.org/1999/02/22-rdf-syntax-ns#"
   xmlns:svg="http://www.w3.org/2000/svg"
   xmlns="http://www.w3.org/2000/svg"
   xmlns:sodipodi="http://sodipodi.sourceforge.net/DTD/sodipodi-0.dtd"
   xmlns:inkscape="http://www.inkscape.org/namespaces/inkscape"
   width="1000"
   height="200"
   viewBox="0 0 264.58 52.916"
   version="1.1"
   id="svg1760"
   inkscape:version="1.0.1 (c497b03c, 2020-09-10)"
   sodipodi:docname="gardenlinuxio-white-text.svg">
  <defs
     id="defs1754" />
  <sodipodi:namedview
     id="base"
     pagecolor="#ffffff"
     bordercolor="#666666"
     borderopacity="1.0"
     inkscape:pageopacity="0.0"
     inkscape:pageshadow="2"
     inkscape:zoom="0.966"
     inkscape:cx="500"
     inkscape:cy="100"
     inkscape:document-units="px"
     inkscape:current-layer="layer1"
     inkscape:document-rotation="0"
     showgrid="false"
     units="px"
     inkscape:pagecheckerboard="true"
     inkscape:window-width="1440"
     inkscape:window-height="855"
     inkscape:window-x="0"
     inkscape:window-y="23"
     inkscape:window-maximized="0" />
  <metadata
     id="metadata1757">
    <rdf:RDF>
      <cc:Work
         rdf:about="">
        <dc:format>image/svg+xml</dc:format>
        <dc:type
           rdf:resource="http://purl.org/dc/dcmitype/StillImage" />
        <dc:title />
      </cc:Work>
    </rdf:RDF>
  </metadata>
  <g
     inkscape:label="Layer 1"
     inkscape:groupmode="layer"
     id="layer1">
    <g
       aria-label="gardenlinux.io"
       id="text2325"
       style="font-size:10.5832px;line-height:1.25;font-family:'110';-inkscape-font-specification:'110, ';stroke-width:0.26458">
      <path
         d="m 24.005625,34.392258 q 3.0127,0.170531 4.755898,0.530539 1.743198,0.34106 2.955857,1.496876 1.21266,1.155816 1.21266,3.505344 0,2.993753 -2.557954,4.528525 -2.557953,1.534772 -7.484382,1.534772 -4.661159,0 -6.859104,-1.269503 -2.178997,-1.250555 -2.178997,-3.846404 0,-1.364242 0.720016,-2.444267 0.720017,-1.080024 2.16005,-2.141101 -1.458981,-0.985286 -1.458981,-2.955858 0,-1.098972 0.51159,-2.008467 0.530539,-0.909494 1.402138,-1.572667 -1.155816,-0.94739 -1.762146,-2.33058 -0.606329,-1.383189 -0.606329,-3.088492 0,-2.027415 0.909494,-3.675873 0.909495,-1.667407 2.709536,-2.633745 1.818989,-0.985286 4.414838,-0.985286 2.766379,0 4.661159,1.080025 0.94739,-1.28845 2.084258,-1.932676 1.155816,-0.663173 2.747432,-0.663173 h 0.09474 l 0.189478,3.429552 h -0.07579 q -1.98952,0 -3.296918,0.625278 0.77686,0.94739 1.155816,2.160049 0.397904,1.21266 0.397904,2.595849 0,1.970572 -0.94739,3.600083 -0.928443,1.610563 -2.766379,2.576901 -1.818989,0.966338 -4.357995,0.966338 -2.027415,0 -3.675874,-0.644225 -0.303165,0.34106 -0.454747,0.644225 -0.151582,0.284217 -0.151582,0.738964 0,0.871599 0.644225,1.288451 0.644225,0.416851 1.686354,0.587382 1.042129,0.151582 3.221127,0.303164 z M 22.887704,19.707711 q -2.122153,0 -3.353761,1.250555 -1.231607,1.250555 -1.231607,3.372709 0,2.197945 1.193712,3.334814 1.212659,1.136868 3.183231,1.136868 1.402137,0 2.444266,-0.568434 1.042129,-0.568434 1.610563,-1.572668 0.568434,-1.023181 0.568434,-2.33058 0,-2.122154 -1.193711,-3.372709 -1.174764,-1.250555 -3.221127,-1.250555 z m 0.189478,23.571067 q 3.164283,0 4.718003,-0.701069 1.572668,-0.701069 1.572668,-2.482162 0,-0.94739 -0.720017,-1.458981 -0.701068,-0.492643 -1.989519,-0.701069 -1.269503,-0.189478 -3.581135,-0.322112 -1.421085,-0.07579 -2.463214,-0.17053 -1.023181,-0.113687 -1.913728,-0.322113 -0.814755,0.890547 -1.174764,1.591615 -0.34106,0.720017 -0.34106,1.648459 0,1.193712 0.720016,1.818989 0.720017,0.644226 1.970572,0.871599 1.269503,0.227374 3.202178,0.227374 z"
         style="font-style:normal;font-variant:normal;font-weight:normal;font-stretch:normal;font-size:38.8051px;font-family:'72';-inkscape-font-specification:'72, ';fill:#ffffff;stroke-width:0.26458"
         id="path9" />
      <path
         d="m 41.399708,38.295506 q -3.126387,0 -4.774846,-1.610563 -1.629511,-1.629511 -1.629511,-4.471682 0,-3.429552 2.557953,-4.907481 2.557954,-1.496876 6.366462,-1.572667 l 4.073777,-0.07579 v -1.212659 q 0,-2.122154 -1.098972,-3.315865 -1.080025,-1.21266 -3.088492,-1.21266 -1.629511,0 -2.955857,0.682121 -1.326346,0.682121 -2.899014,2.387423 l -2.141102,-2.216893 q 1.326347,-1.629511 3.353762,-2.67164 2.046362,-1.061077 4.718002,-1.061077 2.368476,0 4.05483,0.909495 1.686354,0.909494 2.557953,2.50111 0.871599,1.591615 0.871599,3.656926 v 9.473901 q 0,2.425319 0.151583,4.339047 h -3.296918 q -0.151582,-1.38319 -0.151582,-3.031649 h -0.07579 q -1.155815,1.686355 -2.67164,2.557954 -1.496876,0.852651 -3.922195,0.852651 z m 0.77686,-2.861118 q 1.818989,0 3.126388,-0.720017 1.326346,-0.738964 2.008467,-1.913728 0.68212,-1.193712 0.68212,-2.520058 v -1.951623 l -3.221126,0.07579 q -2.823223,0.07579 -4.547473,0.928442 -1.705302,0.833703 -1.705302,2.917962 0,1.458981 0.966338,2.330579 0.985286,0.852652 2.690588,0.852652 z"
         style="font-style:normal;font-variant:normal;font-weight:normal;font-stretch:normal;font-size:38.8051px;font-family:'72';-inkscape-font-specification:'72, ';fill:#ffffff;stroke-width:0.26458"
         id="path11" />
      <path
         d="m 56.804272,22.208821 q 0,-3.107439 -0.113686,-4.774846 h 3.221126 q 0.05684,0.814756 0.09474,1.818989 0.05684,0.985286 0.05684,1.591616 h 0.07579 q 0.757912,-1.913728 1.951623,-2.861119 1.193712,-0.94739 2.709536,-0.94739 1.042129,0 1.705302,0.189478 l -0.265269,3.353761 q -0.682121,-0.208425 -1.629511,-0.208425 -2.254788,0 -3.315865,1.856884 -1.061077,1.837937 -1.061077,5.021168 V 37.91655 h -3.429553 z"
         style="font-style:normal;font-variant:normal;font-weight:normal;font-stretch:normal;font-size:38.8051px;font-family:'72';-inkscape-font-specification:'72, ';fill:#ffffff;stroke-width:0.26458"
         id="path13" />
      <path
         d="m 76.604726,38.295506 q -4.111673,0 -6.195931,-2.823223 -2.065311,-2.823222 -2.065311,-7.730703 0,-3.240074 0.966338,-5.646445 0.966338,-2.406371 2.899014,-3.732717 1.951623,-1.326347 4.755898,-1.326347 1.970572,0 3.524291,0.795808 1.55372,0.77686 2.368476,2.387423 h 0.0379 q -0.0379,-0.416851 -0.0379,-2.482162 V 9.779063 h 3.410604 V 33.69119 q 0,1.326346 0.0379,2.482162 0.0379,1.155816 0.07579,1.743198 H 83.12277 q -0.07579,-0.322113 -0.132635,-1.231607 -0.05684,-0.909495 -0.05684,-1.837937 h -0.07579 q -0.909495,1.72425 -2.539006,2.595849 -1.629511,0.852651 -3.713769,0.852651 z m 0.511591,-3.012701 q 2.652692,0 4.187464,-1.875832 1.55372,-1.875833 1.55372,-6.006454 0,-3.922195 -1.496877,-5.68434 -1.496876,-1.762146 -3.979038,-1.762146 -5.475915,0 -5.475915,7.67386 0,3.637978 1.250555,5.646445 1.269503,2.008467 3.960091,2.008467 z"
         style="font-style:normal;font-variant:normal;font-weight:normal;font-stretch:normal;font-size:38.8051px;font-family:'72';-inkscape-font-specification:'72, ';fill:#ffffff;stroke-width:0.26458"
         id="path15" />
      <path
         d="m 99.872625,38.295506 q -2.993753,0 -5.115907,-1.326346 -2.103206,-1.345294 -3.202178,-3.751665 -1.080025,-2.425319 -1.080025,-5.627498 0,-3.353761 1.155816,-5.722236 1.174764,-2.387423 3.202179,-3.600082 2.027415,-1.231608 4.56642,-1.231608 3.08849,0 5.02117,1.458981 1.93267,1.440033 2.78532,3.675874 0.85266,2.235841 0.85266,4.755898 0,0.644226 -0.0758,1.629511 H 94.074598 q 0,1.648459 0.625277,3.221127 0.644225,1.553719 1.951624,2.576901 1.307398,1.004233 3.221126,1.004233 1.193715,0 2.160045,-0.322112 0.98529,-0.341061 1.76215,-0.871599 0.79581,-0.530539 1.7432,-1.364242 l 1.85688,2.444267 q -0.96634,0.814755 -1.91373,1.440033 -0.94739,0.625277 -2.40637,1.11792 -1.44003,0.492643 -3.202175,0.492643 z m 4.680105,-12.600289 q -0.24632,-2.917962 -1.53477,-4.320099 -1.28845,-1.421085 -3.61903,-1.421085 -1.269503,0 -2.444266,0.60633 -1.155816,0.587381 -1.951624,1.875832 -0.77686,1.288451 -0.871599,3.259022 z"
         style="font-style:normal;font-variant:normal;font-weight:normal;font-stretch:normal;font-size:38.8051px;font-family:'72';-inkscape-font-specification:'72, ';fill:#ffffff;stroke-width:0.26458"
         id="path17" />
      <path
         d="m 112.51082,21.773022 q 0,-1.174764 -0.0379,-2.633745 -0.0379,-1.45898 -0.0758,-1.705302 h 3.22112 q 0.0568,0.511591 0.0947,1.648459 0.0568,1.136868 0.0568,1.837937 h 0.0758 q 1.04213,-1.932676 2.539,-2.899014 1.51583,-0.985286 4.03589,-0.985286 3.27797,0 4.86958,1.932676 1.61056,1.913728 1.61056,5.286437 V 37.91655 h -3.42955 V 24.918357 q 0,-2.368475 -0.98528,-3.600082 -0.98529,-1.250555 -3.24008,-1.250555 -1.61056,0 -2.80427,0.701068 -1.19371,0.701069 -1.85689,2.046363 -0.64422,1.326346 -0.64422,3.221127 V 37.91655 h -3.42955 z"
         style="font-style:normal;font-variant:normal;font-weight:normal;font-stretch:normal;font-size:38.8051px;font-family:'72';-inkscape-font-specification:'72, ';fill:#ffffff;stroke-width:0.26458"
         id="path19" />
      <path
         d="m 138.0335,38.219715 q -4.11167,0 -4.11167,-5.040116 V 9.779063 h 3.41061 v 22.661572 q 0,1.496876 0.32211,2.103206 0.34106,0.587382 1.15581,0.587382 0.4358,0 0.83371,-0.05684 0.3979,-0.07579 1.02318,-0.227373 l 0.4358,2.917961 q -0.79581,0.227374 -1.49688,0.341061 -0.70107,0.113687 -1.57267,0.113687 z"
         style="font-style:normal;font-variant:normal;font-weight:normal;font-stretch:normal;font-size:38.8051px;font-family:'72';-inkscape-font-specification:'72, ';fill:#ffffff;stroke-width:0.26458"
         id="path21" />
      <path
         d="m 145.66947,13.625467 q -0.98529,0 -1.64846,-0.644225 -0.64422,-0.663173 -0.64422,-1.648459 0,-0.985286 0.64422,-1.6295112 0.66317,-0.6631731 1.64846,-0.6631731 0.96634,0 1.61056,0.6631731 0.64423,0.6442252 0.64423,1.6295112 0,0.966338 -0.64423,1.629511 -0.64422,0.663173 -1.61056,0.663173 z m -1.7053,3.808508 h 3.4106 V 37.91655 h -3.4106 z"
         style="font-style:normal;font-variant:normal;font-weight:normal;font-stretch:normal;font-size:38.8051px;font-family:'72';-inkscape-font-specification:'72, ';fill:#ffffff;stroke-width:0.26458"
         id="path23" />
      <path
         d="m 152.68016,21.773022 q 0,-1.174764 -0.0379,-2.633745 -0.0379,-1.45898 -0.0758,-1.705302 h 3.22113 q 0.0568,0.511591 0.0947,1.648459 0.0568,1.136868 0.0568,1.837937 h 0.0758 q 1.04213,-1.932676 2.53901,-2.899014 1.51582,-0.985286 4.03588,-0.985286 3.27797,0 4.86958,1.932676 1.61057,1.913728 1.61057,5.286437 V 37.91655 h -3.42956 V 24.918357 q 0,-2.368475 -0.98528,-3.600082 -0.98529,-1.250555 -3.24008,-1.250555 -1.61056,0 -2.80427,0.701068 -1.19371,0.701069 -1.85689,2.046363 -0.64422,1.326346 -0.64422,3.221127 V 37.91655 h -3.42955 z"
         style="font-style:normal;font-variant:normal;font-weight:normal;font-stretch:normal;font-size:38.8051px;font-family:'72';-inkscape-font-specification:'72, ';fill:#ffffff;stroke-width:0.26458"
         id="path25" />
      <path
         d="m 180.60922,38.295506 q -3.22113,0 -4.85064,-1.932676 -1.62951,-1.932676 -1.62951,-5.665393 V 17.433975 h 3.4106 v 12.600289 q 0,2.804275 1.00424,4.035882 1.02318,1.212659 3.24007,1.212659 1.47793,0 2.69059,-0.77686 1.21266,-0.795807 1.91373,-2.216893 0.70107,-1.440033 0.70107,-3.259022 V 17.433975 h 3.4106 v 16.105632 q 0,1.250555 0.0379,2.690588 0.0568,1.421085 0.0947,1.686355 h -3.22113 q -0.0379,-0.208426 -0.11369,-1.458981 -0.0568,-1.250555 -0.0568,-1.913728 h -0.0758 q -1.00424,1.800041 -2.59585,2.785327 -1.59162,0.966338 -3.96009,0.966338 z"
         style="font-style:normal;font-variant:normal;font-weight:normal;font-stretch:normal;font-size:38.8051px;font-family:'72';-inkscape-font-specification:'72, ';fill:#ffffff;stroke-width:0.26458"
         id="path27" />
      <path
         d="m 200.90231,27.400519 -6.91594,-9.966544 h 3.8464 l 5.04012,7.863338 5.00222,-7.863338 h 3.88429 l -6.91594,9.928649 7.3328,10.553926 h -3.86536 l -5.43801,-8.337033 -5.43802,8.337033 h -3.78956 z"
         style="font-style:normal;font-variant:normal;font-weight:normal;font-stretch:normal;font-size:38.8051px;font-family:'72';-inkscape-font-specification:'72, ';fill:#ffffff;stroke-width:0.26458"
         id="path29" />
      <path
         d="m 218.05007,38.143923 q -1.04213,0 -1.7053,-0.663173 -0.66318,-0.663173 -0.66318,-1.705302 0,-1.023181 0.66318,-1.667407 0.66317,-0.663173 1.7053,-0.663173 1.00423,0 1.6674,0.663173 0.66318,0.663173 0.66318,1.667407 0,1.042129 -0.66318,1.705302 -0.64422,0.663173 -1.6674,0.663173 z"
         style="font-style:normal;font-variant:normal;font-weight:normal;font-stretch:normal;font-size:38.8051px;font-family:'72';-inkscape-font-specification:'72, ';fill:#ffffff;stroke-width:0.26458"
         id="path31" />
      <path
         d="m 227.67556,13.625467 q -0.98529,0 -1.64846,-0.644225 -0.64423,-0.663173 -0.64423,-1.648459 0,-0.985286 0.64423,-1.6295112 0.66317,-0.6631731 1.64846,-0.6631731 0.96634,0 1.61056,0.6631731 0.64423,0.6442252 0.64423,1.6295112 0,0.966338 -0.64423,1.629511 -0.64422,0.663173 -1.61056,0.663173 z m -1.7053,3.808508 h 3.4106 V 37.91655 h -3.4106 z"
         style="font-style:normal;font-variant:normal;font-weight:normal;font-stretch:normal;font-size:38.8051px;font-family:'72';-inkscape-font-specification:'72, ';fill:#ffffff;stroke-width:0.26458"
         id="path33" />
      <path
         d="m 242.72011,38.295506 q -2.82322,0 -4.86958,-1.307399 -2.04636,-1.326346 -3.12639,-3.732717 -1.08002,-2.406371 -1.08002,-5.627497 0,-3.164283 1.04213,-5.551706 1.04212,-2.387423 3.10744,-3.713769 2.06531,-1.326347 5.04011,-1.326347 4.60432,0 6.85911,2.842171 2.27373,2.823222 2.27373,7.749651 0,3.221126 -1.06108,5.627497 -1.06107,2.406371 -3.14533,3.732717 -2.08426,1.307399 -5.04012,1.307399 z m -0.0379,-2.899014 q 2.70953,0 4.20641,-1.913728 1.49688,-1.932676 1.49688,-5.854871 0,-3.865352 -1.44004,-5.760132 -1.42108,-1.913728 -4.07377,-1.913728 -2.67164,0 -4.16852,1.951624 -1.49688,1.932675 -1.49688,5.722236 0,2.576901 0.70107,4.320099 0.72002,1.743198 1.95163,2.595849 1.2316,0.852651 2.82322,0.852651 z"
         style="font-style:normal;font-variant:normal;font-weight:normal;font-stretch:normal;font-size:38.8051px;font-family:'72';-inkscape-font-specification:'72, ';fill:#ffffff;stroke-width:0.26458"
         id="path35" />
    </g>
  </g>
</svg>
